<svg width="256" height="256" viewBox="0 0 256 256" fill="none" xmlns="http://www.w3.org/2000/svg">
  <!-- Shadow/accent (keeps the "fold" vibe) -->
  <path
    d="M70 134C86 122 96 130 104 146C98 160 94 168 92 170C86 178 80 182 72 186C58 192 40 192 28 184L70 134Z"
    fill="url(#paint0_linear)"
  />

  <!-- Top bar of the T (rounded ribbon) -->
  <path
    d="M68 64H172A28 28 0 0 1 200 92V92A28 28 0 0 1 172 120H68A28 28 0 0 1 40 92V92A28 28 0 0 1 68 64Z"
    fill="url(#paint1_linear)"
  />

  <!-- Stem of the T (rounded, overlaps the bar to feel like one piece) -->
  <path
    d="M120 96H120A28 28 0 0 1 148 124V164A28 28 0 0 1 120 192H120A28 28 0 0 1 92 164V124A28 28 0 0 1 120 96Z"
    fill="url(#paint1_linear)"
  />

  <!-- Dot (kept exactly like Minimal) -->
    <path
    fill-rule="evenodd"
    clip-rule="evenodd"
    d="M185 192C198.254 192 209 181.254 209 168C209 154.746 198.254 144 185 144C171.746 144 161 154.746 161 168C161 181.254 171.746 192 185 192"
    fill="url(#paint2_linear)"
    />

  <defs>
    <!-- Accent/shadow gradient -->
    <linearGradient id="paint0_linear" x1="108" y1="112" x2="40" y2="188" gradientUnits="userSpaceOnUse">
      <stop stop-color="var(--mui-palette-primary-dark, #004B50)"/>
      <stop offset="1" stop-color="var(--mui-palette-primary-main, #00A76F)"/>
    </linearGradient>

    <!-- Main mark gradient -->
    <linearGradient id="paint1_linear" x1="40" y1="64" x2="40" y2="192" gradientUnits="userSpaceOnUse">
      <stop stop-color="var(--mui-palette-primary-light, #5BE49B)"/>
      <stop offset="1" stop-color="var(--mui-palette-primary-main, #00A76F)"/>
    </linearGradient>

    <!-- Dot gradient -->
    <linearGradient id="paint2_linear" x1="169" y1="144" x2="169" y2="192" gradientUnits="userSpaceOnUse">
      <stop stop-color="var(--mui-palette-primary-light, #5BE49B)"/>
      <stop offset="1" stop-color="var(--mui-palette-primary-main, #00A76F)"/>
    </linearGradient>
  </defs>
</svg>
